<svg width="32px" height="32px" viewBox="0 0 32 32" version="1.1" xmlns="http://www.w3.org/2000/svg" xmlns:xlink="http://www.w3.org/1999/xlink">
    <style>
        #icon-Umark-lg {
            fill: #02b3e4;
        }
    </style>
    <g id="Uicons-(i/p)" stroke="none" stroke-width="1" fill="none" fill-rule="evenodd">
        <g id="icon-Umark-lg" fill="#000000">
            <path d="M30,1.5 L31,2 L31,15 C31,20.5518873 28.1103013,23.6956924 25.0047842,25.0998853 L25.0093994,25.1000004 L17.3884366,29.4885624 C17.3296668,29.5231221 17.270677,29.5570892 17.21148,29.5904636 L17.125061,29.6402283 L17.1268658,29.6376869 C15.4828894,30.5458956 13.6846816,31 12,31 C7,31 1,27 1,19 L1,7 L3,8 L3,19 C3,27 9,29 12,29 C13.8587063,29 16.869009,28.2322691 18.8904286,25.745483 C15.1817274,24.8726359 11,21.6787044 11,15 L11,3.2 L3,8 L1,7 L11,1 L12,1.5 L13,2 L13,15 C13,21.9399584 17.5152834,23.6120862 20.0175421,23.9333683 C20.6257864,22.6215901 21,20.9979019 21,19 L21,6 L23,7 L23,19 C23,20.8526446 22.6782226,22.4907709 22.1216048,23.914379 C24.6482233,23.5492182 29,21.8131455 29,15 L29,3.25 L23,7 L21,6 L29,1 L30,1.5 Z" id="Combined-Shape"></path>
        </g>
    </g>
</svg>